<svg width="24" height="24" viewBox="0 0 24 24" fill="none" xmlns="http://www.w3.org/2000/svg">
<path fill-rule="evenodd" clip-rule="evenodd" d="M11.9989 0C5.38804 0 -0.000975938 5.38167 -0.000975938 11.9971C-0.0031811 18.1711 5.83522 24 11.9931 24H11.999C18.61 24 23.999 18.6183 23.999 12.003C23.999 8.79667 22.753 5.78098 20.4878 3.51621C18.2226 1.25155 15.2121 0 11.9989 0ZM7.91379 5.07928C8.17227 5.08629 8.45883 5.10044 8.73147 5.71305C8.91227 6.12087 9.21683 6.87166 9.46493 7.48325C9.65798 7.95915 9.81684 8.35076 9.8566 8.43092C9.94744 8.61396 10.0034 8.82518 9.88456 9.07158C9.87055 9.10064 9.85732 9.12843 9.84458 9.15519C9.74928 9.3554 9.68146 9.49787 9.5212 9.68418C9.45529 9.76075 9.38665 9.84472 9.31825 9.92838C9.19797 10.0755 9.07847 10.2217 8.97603 10.325C8.79435 10.5079 8.60559 10.7052 8.81523 11.0713C9.02499 11.4374 9.7588 12.6414 10.842 13.6131C12.0066 14.6626 13.0193 15.1049 13.5312 15.3285C13.6306 15.3719 13.7111 15.4071 13.7702 15.4368C14.1337 15.6199 14.3503 15.5917 14.5599 15.3453C14.7697 15.0988 15.4684 14.2749 15.7131 13.9089C15.9507 13.5428 16.1953 13.5991 16.5308 13.7258C16.8662 13.8525 18.6553 14.7397 19.0186 14.9227C19.0905 14.9589 19.1576 14.9916 19.2199 15.0218C19.4728 15.1445 19.6446 15.2279 19.7175 15.3523C19.8084 15.5072 19.8083 16.2395 19.5079 17.0985C19.2004 17.9575 17.7188 18.7813 17.0479 18.8447C16.9843 18.8507 16.9211 18.8585 16.8561 18.8664C16.2412 18.9417 15.4607 19.0373 12.68 17.9293C9.25349 16.5654 6.99164 13.1813 6.53435 12.4971C6.49825 12.4431 6.4734 12.4059 6.4601 12.3879L6.45237 12.3774C6.24432 12.0956 4.9715 10.3717 4.9715 8.59293C4.9715 6.89111 5.79969 6.00511 6.17744 5.60099C6.20138 5.57538 6.22351 5.5517 6.2435 5.52988C6.5789 5.16379 6.97035 5.07227 7.21491 5.07227C7.45959 5.07227 7.70415 5.07227 7.91379 5.07928Z" fill="white"/>
</svg>
