<svg width="40" height="40" viewBox="0 0 40 40" fill="none" xmlns="http://www.w3.org/2000/svg">
<path d="M30.8297 25.4191L26.9172 24.9752C25.9776 24.868 25.0534 25.1895 24.391 25.8478L21.5567 28.6646C17.1975 26.4601 13.6238 22.9238 11.4057 18.5762L14.2554 15.7441C14.9177 15.0858 15.2412 14.1673 15.1334 13.2334L14.6867 9.37565C14.5018 7.82948 13.1925 6.66602 11.6213 6.66602H8.95651C7.2159 6.66602 5.76795 8.10503 5.87578 9.83491C6.69217 22.9085 17.2129 33.349 30.3522 34.1604C32.0928 34.2676 33.5408 32.8285 33.5408 31.0987V28.4503C33.5562 26.9041 32.3855 25.6028 30.8297 25.4191Z" fill="white"/>
</svg>
