<svg width="95" height="95" viewBox="0 0 95 95" fill="none" xmlns="http://www.w3.org/2000/svg">
<path fill-rule="evenodd" clip-rule="evenodd" d="M47.5 95C73.7335 95 95 73.7335 95 47.5C95 21.2665 73.7335 0 47.5 0C21.2665 0 0 21.2665 0 47.5C0 73.7335 21.2665 95 47.5 95ZM73.5052 36.5656C75.4744 34.6298 75.5015 31.4641 73.5656 29.4948C71.6298 27.5256 68.4641 27.4985 66.4948 29.4344L40.5949 54.8953L30.5992 44.5293C28.6824 42.5415 25.5171 42.484 23.5293 44.4008C21.5415 46.3176 21.484 49.4829 23.4008 51.4707L36.9008 65.4707C37.8271 66.4313 39.0989 66.9817 40.4332 66.9996C41.7675 67.0174 43.0536 66.5011 44.0052 65.5656L73.5052 36.5656Z" fill="white"/>
</svg>
