<svg width="16" height="16" viewBox="0 0 16 16" fill="none" xmlns="http://www.w3.org/2000/svg">
<path d="M14.6663 13.7786C14.6663 14.7564 13.8663 15.5564 12.8886 15.5564H3.11079C2.13301 15.5564 1.33301 14.7564 1.33301 13.7786V6.22309C1.33301 5.24531 2.13301 4.44531 3.11079 4.44531H12.8886C13.8663 4.44531 14.6663 5.24531 14.6663 6.22309V13.7786Z" fill="#F8D781"/>
<path d="M16 4.88911C16 5.86688 15.2 6.66688 14.2222 6.66688H1.77778C0.8 6.66688 0 5.86688 0 4.88911C0 3.91133 0.8 3.11133 1.77778 3.11133H14.2222C15.2 3.11133 16 3.91133 16 4.88911Z" fill="#F8D781"/>
<path d="M1.33301 6.66602H14.6663V7.5549H1.33301V6.66602Z" fill="#FFCD4B"/>
<path d="M8.44488 1.33398H7.55599C7.20237 1.33398 6.86323 1.47446 6.61318 1.72451C6.36313 1.97456 6.22266 2.3137 6.22266 2.66732V15.5562H9.77821V2.66732C9.77821 2.3137 9.63774 1.97456 9.38769 1.72451C9.13764 1.47446 8.7985 1.33398 8.44488 1.33398Z" fill="#DA2F47"/>
<path d="M7.11149 3.1116C7.60037 3.1116 7.67282 2.88227 7.27193 2.60182L4.28437 0.510269C4.19271 0.443525 4.08787 0.397088 3.97684 0.374055C3.86581 0.351021 3.75115 0.35192 3.6405 0.376692C3.52985 0.401463 3.42575 0.449538 3.33514 0.517711C3.24453 0.585884 3.1695 0.672589 3.11504 0.772046L2.21904 2.34005C1.97637 2.76449 2.17815 3.1116 2.66704 3.1116H7.11149ZM8.88926 3.1116C8.40037 3.1116 8.32793 2.88227 8.72882 2.60182L11.7168 0.510269C11.8085 0.443596 11.9133 0.397219 12.0244 0.374225C12.1354 0.351231 12.25 0.352148 12.3606 0.376915C12.4713 0.401681 12.5754 0.44973 12.666 0.517861C12.7566 0.585992 12.8316 0.672643 12.8862 0.772046L13.7822 2.3396C14.0244 2.76449 13.8226 3.1116 13.3337 3.1116H8.88926Z" fill="#DA2F47"/>
</svg>
