<svg width="22" height="18" viewBox="0 0 22 18" fill="none" xmlns="http://www.w3.org/2000/svg">
<path d="M1.7358 6.9432C0.775324 6.9432 0 7.71852 0 8.679C0 9.63947 0.775324 10.4148 1.7358 10.4148C2.69627 10.4148 3.4716 9.63947 3.4716 8.679C3.4716 7.71852 2.69627 6.9432 1.7358 6.9432ZM1.7358 0C0.775324 0 0 0.775324 0 1.7358C0 2.69627 0.775324 3.4716 1.7358 3.4716C2.69627 3.4716 3.4716 2.69627 3.4716 1.7358C3.4716 0.775324 2.69627 0 1.7358 0ZM1.7358 13.8864C0.775324 13.8864 0 14.6733 0 15.6222C0 16.5711 0.786896 17.358 1.7358 17.358C2.6847 17.358 3.4716 16.5711 3.4716 15.6222C3.4716 14.6733 2.69627 13.8864 1.7358 13.8864ZM6.3646 16.7794H20.251C20.8875 16.7794 21.4082 16.2587 21.4082 15.6222C21.4082 14.9857 20.8875 14.465 20.251 14.465H6.3646C5.72814 14.465 5.2074 14.9857 5.2074 15.6222C5.2074 16.2587 5.72814 16.7794 6.3646 16.7794ZM6.3646 9.8362H20.251C20.8875 9.8362 21.4082 9.31546 21.4082 8.679C21.4082 8.04254 20.8875 7.5218 20.251 7.5218H6.3646C5.72814 7.5218 5.2074 8.04254 5.2074 8.679C5.2074 9.31546 5.72814 9.8362 6.3646 9.8362ZM5.2074 1.7358C5.2074 2.37226 5.72814 2.893 6.3646 2.893H20.251C20.8875 2.893 21.4082 2.37226 21.4082 1.7358C21.4082 1.09934 20.8875 0.5786 20.251 0.5786H6.3646C5.72814 0.5786 5.2074 1.09934 5.2074 1.7358Z" fill="white"/>
</svg>
