<svg width="24" height="24" viewBox="0 0 24 24" fill="none" xmlns="http://www.w3.org/2000/svg">
<path d="M4.68464 14.3488L3.77282 18.2925C3.74136 18.4366 3.74244 18.586 3.77597 18.7297C3.80951 18.8734 3.87465 19.0078 3.96664 19.123C4.05862 19.2382 4.17514 19.3314 4.30767 19.3957C4.44019 19.4601 4.58538 19.4939 4.73264 19.4948C4.80125 19.5017 4.87038 19.5017 4.939 19.4948L8.89824 18.581L16.5 10.9919L12.2576 6.75L4.68464 14.3488Z" fill="#97DC52"/>
<path d="M19.2109 6.81905L16.4262 4.03441C16.2432 3.85225 15.9954 3.75 15.7372 3.75C15.4789 3.75 15.2311 3.85225 15.0481 4.03441L13.5 5.58248L17.6675 9.75L19.2156 8.20193C19.3062 8.11087 19.3779 8.00285 19.4267 7.88404C19.4755 7.76522 19.5004 7.63795 19.5 7.50951C19.4996 7.38106 19.4738 7.25397 19.4242 7.13549C19.3746 7.01701 19.3021 6.90948 19.2109 6.81905Z" fill="#97DC52"/>
</svg>
