<svg width="25" height="24" viewBox="0 0 25 24" fill="none" xmlns="http://www.w3.org/2000/svg">
<path d="M10.8281 12.1016L8.5 19.9375C8.5 20.2363 8.59635 20.4881 8.78906 20.6929C8.98177 20.8976 9.21875 21 9.5 21H15.5C15.7708 21 16.0052 20.8976 16.2031 20.6929C16.401 20.4881 16.5 20.2363 16.5 19.9375L14.1719 12.1016C14.8698 11.7585 15.4323 11.241 15.8594 10.5493C16.2865 9.85758 16.5 9.09115 16.5 8.25C16.5 7.07682 16.1094 6.0752 15.3281 5.24512C14.5469 4.41504 13.6042 4 12.5 4C11.3958 4 10.4531 4.41504 9.67188 5.24512C8.89062 6.0752 8.5 7.07682 8.5 8.25C8.5 9.09115 8.71354 9.85758 9.14062 10.5493C9.56771 11.241 10.1302 11.7585 10.8281 12.1016Z" fill="white" fill-opacity="0.8"/>
</svg>
