<svg width="21" height="20" viewBox="0 0 21 20" fill="none" xmlns="http://www.w3.org/2000/svg">
<path d="M9.60806 0.75947C9.97836 0.029011 11.0216 0.0290126 11.3919 0.759472L13.8516 5.61145C13.997 5.89826 14.2714 6.09766 14.5891 6.1473L19.9637 6.98722C20.7728 7.11367 21.0952 8.10589 20.5149 8.68379L16.6605 12.5224C16.4327 12.7493 16.3278 13.0719 16.3788 13.3894L17.2408 18.7605C17.3706 19.5691 16.5266 20.1823 15.7976 19.809L10.9558 17.3294C10.6696 17.1829 10.3304 17.1829 10.0442 17.3294L5.20236 19.809C4.47343 20.1823 3.6294 19.5691 3.75917 18.7605L4.6212 13.3894C4.67216 13.0719 4.56733 12.7493 4.33949 12.5224L0.485054 8.68379C-0.0952265 8.10589 0.227168 7.11367 1.0363 6.98722L6.41088 6.1473C6.72858 6.09766 7.00303 5.89826 7.14842 5.61145L9.60806 0.75947Z" fill="white" fill-opacity="0.8"/>
</svg>
