<svg width="25" height="24" viewBox="0 0 25 24" fill="none" xmlns="http://www.w3.org/2000/svg">
<path d="M11.7806 20.6368C6.48328 13.2316 5.5 12.4715 5.5 9.75C5.5 6.02207 8.63399 3 12.5 3C16.366 3 19.5 6.02207 19.5 9.75C19.5 12.4715 18.5167 13.2316 13.2194 20.6368C12.8718 21.1211 12.1282 21.121 11.7806 20.6368ZM12.5 12.5625C14.1108 12.5625 15.4167 11.3033 15.4167 9.75C15.4167 8.19669 14.1108 6.9375 12.5 6.9375C10.8892 6.9375 9.58333 8.19669 9.58333 9.75C9.58333 11.3033 10.8892 12.5625 12.5 12.5625Z" fill="white" fill-opacity="0.8"/>
</svg>
