<svg width="24" height="24" viewBox="0 0 24 24" fill="none" xmlns="http://www.w3.org/2000/svg">
<path d="M16.25 13L3.1875 13C2.87255 13 2.57051 12.8946 2.34781 12.7071C2.12511 12.5196 2 12.2652 2 12C2 11.7348 2.12511 11.4804 2.34781 11.2929C2.57051 11.1054 2.87255 11 3.1875 11L16.25 11L16.25 10C16.25 9.73478 16.3751 9.48043 16.5978 9.29289C16.8205 9.10536 17.1226 9 17.4375 9C17.7524 9 18.0545 9.10536 18.2772 9.29289C18.4999 9.48043 18.625 9.73478 18.625 10L18.625 11L20.8125 11C21.1274 11 21.4295 11.1054 21.6522 11.2929C21.8749 11.4804 22 11.7348 22 12C22 12.2652 21.8749 12.5196 21.6522 12.7071C21.4295 12.8946 21.1274 13 20.8125 13L18.625 13L18.625 14C18.625 14.2652 18.4999 14.5196 18.2772 14.7071C18.0545 14.8946 17.7524 15 17.4375 15C17.1226 15 16.8205 14.8946 16.5978 14.7071C16.3751 14.5196 16.25 14.2652 16.25 14L16.25 13ZM4.375 6L3.1875 6C2.87255 6 2.57051 5.89464 2.34781 5.70711C2.12511 5.51957 2 5.26522 2 5C2 4.73478 2.12511 4.48043 2.34781 4.29289C2.57051 4.10536 2.87255 4 3.1875 4L4.375 4L4.375 3C4.375 2.73478 4.50011 2.48043 4.72281 2.29289C4.94551 2.10536 5.24755 2 5.5625 2C5.87744 2 6.17949 2.10536 6.40219 2.29289C6.62489 2.48043 6.75 2.73478 6.75 3L6.75 4L20.8125 4C21.1274 4 21.4295 4.10536 21.6522 4.29289C21.8749 4.48043 22 4.73478 22 5C22 5.26522 21.8749 5.51957 21.6522 5.70711C21.4295 5.89464 21.1274 6 20.8125 6L6.75 6L6.75 7C6.75 7.26522 6.62489 7.51957 6.40219 7.70711C6.17949 7.89464 5.87744 8 5.5625 8C5.24755 8 4.94551 7.89464 4.72281 7.70711C4.50011 7.51957 4.375 7.26522 4.375 7L4.375 6ZM7.9375 18L7.9375 17C7.9375 16.7348 8.06261 16.4804 8.28531 16.2929C8.50801 16.1054 8.81005 16 9.125 16C9.43994 16 9.74199 16.1054 9.96469 16.2929C10.1874 16.4804 10.3125 16.7348 10.3125 17L10.3125 18L20.8125 18C21.1274 18 21.4295 18.1054 21.6522 18.2929C21.8749 18.4804 22 18.7348 22 19C22 19.2652 21.8749 19.5196 21.6522 19.7071C21.4295 19.8946 21.1274 20 20.8125 20L10.3125 20L10.3125 21C10.3125 21.2652 10.1874 21.5196 9.96469 21.7071C9.74199 21.8946 9.43994 22 9.125 22C8.81006 22 8.50801 21.8946 8.28531 21.7071C8.06261 21.5196 7.9375 21.2652 7.9375 21L7.9375 20L3.1875 20C2.87256 20 2.57051 19.8946 2.34781 19.7071C2.12511 19.5196 2 19.2652 2 19C2 18.7348 2.12511 18.4804 2.34781 18.2929C2.57051 18.1054 2.87256 18 3.1875 18L7.9375 18Z" fill="white"/>
</svg>
