<svg width="25" height="25" viewBox="0 0 25 25" fill="none" xmlns="http://www.w3.org/2000/svg">
<path d="M12.5 23.4375C18.5406 23.4375 23.4375 18.5406 23.4375 12.5C23.4375 6.45939 18.5406 1.5625 12.5 1.5625C6.45939 1.5625 1.5625 6.45939 1.5625 12.5C1.5625 18.5406 6.45939 23.4375 12.5 23.4375Z" fill="#2196F3"/>
<path d="M11.4585 11.459H13.5418V17.1881H11.4585V11.459Z" fill="white"/>
<path d="M12.4998 9.89518C13.219 9.89518 13.8019 9.31222 13.8019 8.5931C13.8019 7.87398 13.219 7.29102 12.4998 7.29102C11.7807 7.29102 11.1978 7.87398 11.1978 8.5931C11.1978 9.31222 11.7807 9.89518 12.4998 9.89518Z" fill="white"/>
</svg>
