<svg width="18" height="18" viewBox="0 0 18 18" fill="none" xmlns="http://www.w3.org/2000/svg">
<path fill-rule="evenodd" clip-rule="evenodd" d="M17.335 8.99906C17.335 4.39573 13.6034 0.664062 9.00004 0.664062C4.39671 0.664062 0.665039 4.39573 0.665039 8.99906C0.665039 13.6016 4.39671 17.3332 9.00004 17.3332C13.6034 17.3332 17.335 13.6016 17.335 8.99906ZM7.75 8.99902C7.75 8.30867 8.30964 7.74902 9 7.74902C9.69036 7.74902 10.25 8.30867 10.25 8.99902V12.749C10.25 13.4394 9.69036 13.999 9 13.999C8.30964 13.999 7.75 13.4394 7.75 12.749V8.99902ZM9 3.99902C8.30964 3.99902 7.75 4.55867 7.75 5.24902C7.75 5.93938 8.30964 6.49902 9 6.49902C9.69036 6.49902 10.25 5.93938 10.25 5.24902C10.25 4.55867 9.69036 3.99902 9 3.99902Z" fill="white" fill-opacity="0.8"/>
</svg>
