<svg width="24" height="24" viewBox="0 0 24 24" fill="none" xmlns="http://www.w3.org/2000/svg">
<path fill-rule="evenodd" clip-rule="evenodd" d="M0 12C0 5.37253 5.37253 0 12 0C18.6275 0 24 5.37253 24 12C24 18.6275 18.6275 24 12 24C5.37253 24 0 18.6275 0 12ZM15.6956 17.7093L17.839 6.90284L17.8389 6.90302C17.8389 6.18359 16.8497 6.61821 16.8497 6.61821L4.81443 11.3395C4.81443 11.3395 4.24481 11.5343 4.28981 11.894C4.33481 12.2537 4.79943 12.4185 4.79943 12.4185L7.82699 13.4378L7.8271 13.4378C7.83751 13.472 8.74239 16.4384 8.92107 17.0046C9.09185 17.545 9.23055 17.5849 9.24432 17.5876L9.2443 17.5878C9.41155 17.6605 9.56455 17.5445 9.56455 17.5445L11.5208 15.7608L11.4755 15.7254L14.5716 18.099C15.3959 18.4587 15.6956 17.7093 15.6956 17.7093Z" fill="white"/>
</svg>
