<svg width="22" height="24" viewBox="0 0 22 24" fill="none" xmlns="http://www.w3.org/2000/svg">
<path d="M19.519 2.337C18.9436 1.78863 16.6148 0.0404148 11.4225 0.0169803C11.4225 0.0169803 5.30148 -0.362659 2.32023 2.46823C0.661963 4.18364 0.0774935 6.70052 0.0140627 9.81731C-0.0493681 12.9341 -0.126391 18.774 5.31507 20.3582H5.3196L5.31507 22.7766C5.31507 22.7766 5.27882 23.7562 5.90407 23.953C6.65618 24.1968 7.10019 23.4515 7.82058 22.6501C8.21476 22.2095 8.75846 21.5627 9.17076 21.0706C12.8951 21.394 15.754 20.6534 16.0802 20.5456C16.8323 20.2926 21.0867 19.7301 21.7754 13.8902C22.4912 7.86287 21.431 4.0571 19.519 2.337ZM13.851 9.66264C13.8692 10.0657 13.2847 10.0938 13.2666 9.69076C13.2167 8.65964 12.7501 8.15814 11.7895 8.1019C11.3999 8.07847 11.4361 7.47386 11.8213 7.49729C13.0853 7.56759 13.7876 8.3175 13.851 9.66264ZM14.7708 10.1923C14.8161 8.20501 13.6154 6.64896 11.3365 6.47554C10.9513 6.44742 10.9921 5.84281 11.3772 5.87093C14.0051 6.06778 15.4051 7.93786 15.3553 10.2063C15.3507 10.6094 14.7617 10.5907 14.7708 10.1923ZM16.9003 10.8203C16.9048 11.2234 16.3158 11.2281 16.3158 10.825C16.2886 7.00516 13.8284 4.92418 10.8426 4.90074C10.4575 4.89605 10.4575 4.29613 10.8426 4.29613C14.1818 4.31956 16.8685 6.7052 16.9003 10.8203ZM16.3883 15.4182V15.4275C15.899 16.3181 14.9837 17.3023 14.0413 16.9883L14.0323 16.9742C13.0763 16.6977 10.8245 15.4978 9.40182 14.3261C8.66784 13.7262 7.99728 13.0185 7.48078 12.3389C7.01411 11.7343 6.54291 11.0172 6.0853 10.1548C5.12024 8.35031 4.9073 7.54416 4.9073 7.54416C4.60374 6.56928 5.55067 5.62252 6.41605 5.11634H6.42511C6.84194 4.89137 7.24065 4.96636 7.50796 5.29913C7.50796 5.29913 8.06978 5.99279 8.30991 6.33494C8.53645 6.65365 8.84001 7.16452 8.99859 7.45042C9.27496 7.96129 9.10279 8.48154 8.83095 8.69714L8.28725 9.14708C8.01088 9.37674 8.04712 9.80325 8.04712 9.80325C8.04712 9.80325 8.8536 12.9575 11.8666 13.7543C11.8666 13.7543 12.2789 13.7918 12.5009 13.5059L12.9358 12.9435C13.1442 12.6623 13.6472 12.4842 14.141 12.7701C14.807 13.1591 15.6543 13.7637 16.2161 14.3121C16.5333 14.5792 16.6058 14.987 16.3883 15.4182Z" fill="white"/>
</svg>
