<svg width="23" height="23" viewBox="0 0 23 23" fill="none" xmlns="http://www.w3.org/2000/svg">
<path fill-rule="evenodd" clip-rule="evenodd" d="M1.81206 17.1423L0.199219 22.983V22.9831L6.21641 21.415C7.87438 22.311 9.74102 22.787 11.6416 22.787H11.6472C17.9012 22.787 22.9993 17.7303 22.9993 11.5145C22.9993 8.50177 21.8205 5.6682 19.6776 3.5402C17.5347 1.4123 14.6868 0.236328 11.6471 0.236328C5.39314 0.236328 0.295083 5.293 0.295083 11.5089C0.294372 13.4863 0.817539 15.4292 1.81206 17.1423ZM8.05211 6.11617C8.26069 6.12174 8.49193 6.133 8.71193 6.62021C8.85782 6.94456 9.10359 7.54167 9.30379 8.02807C9.45957 8.40656 9.58776 8.71801 9.61984 8.78176C9.69314 8.92734 9.73826 9.09532 9.6424 9.29128C9.63109 9.3144 9.62042 9.3365 9.61014 9.35779C9.53324 9.51701 9.47851 9.63032 9.34919 9.7785C9.29601 9.83939 9.24061 9.90617 9.18542 9.97271C9.08836 10.0897 8.99193 10.206 8.90928 10.2881C8.76267 10.4336 8.61035 10.5905 8.77952 10.8817C8.94878 11.1728 9.54092 12.1304 10.415 12.9032C11.3548 13.7379 12.1719 14.0897 12.585 14.2675C12.6652 14.302 12.7302 14.33 12.7778 14.3536C13.0711 14.4992 13.2459 14.4768 13.4151 14.2808C13.5844 14.0848 14.1482 13.4296 14.3457 13.1384C14.5374 12.8473 14.7347 12.8921 15.0055 12.9928C15.2761 13.0936 16.7198 13.7992 17.013 13.9448C17.071 13.9736 17.1252 13.9995 17.1754 14.0235C17.3795 14.1212 17.5182 14.1875 17.577 14.2864C17.6503 14.4096 17.6503 14.992 17.4078 15.6752C17.1597 16.3583 15.9641 17.0135 15.4227 17.0639C15.3715 17.0688 15.3205 17.0749 15.268 17.0812C14.7718 17.1411 14.142 17.2171 11.8981 16.3359C9.13317 15.2512 7.30801 12.5598 6.939 12.0157C6.90986 11.9727 6.88981 11.9431 6.87908 11.9288L6.87284 11.9205C6.70495 11.6963 5.67787 10.3252 5.67787 8.91061C5.67787 7.55714 6.34617 6.85249 6.65099 6.53109C6.67031 6.51072 6.68816 6.49189 6.7043 6.47453C6.97495 6.18338 7.29082 6.11059 7.48816 6.11059C7.6856 6.11059 7.88295 6.11059 8.05211 6.11617Z" fill="white"/>
</svg>
