<svg width="154" height="137" viewBox="0 0 154 137" fill="none" xmlns="http://www.w3.org/2000/svg">
<path d="M39.5704 131.422L39.2568 133.871L43.8414 136.016L46.6041 134.815L44.4686 132.052L39.8871 128.973L39.5704 131.422Z" fill="#305399"/>
<path d="M39.4173 130.6L42.9514 99.3668L38.6992 64.4055L39.6556 56.9673L58.6493 56.2461L59.3361 68.3504L56.1469 99.417L44.1493 132.196L39.4173 130.6Z" fill="#BCBEC0"/>
<path d="M60.4336 21.6895L69.9853 24.2922L81.036 43.8691L75.8023 48.7171L68.4362 39.9933L60.4336 21.6895Z" fill="#7383C5"/>
<path d="M72.5844 59.748L72.6346 91.263L66.2908 131.837L61.725 131.79L59.2164 94.2702L53.3398 56.7188L72.5844 59.748Z" fill="#BCBEC0"/>
<path d="M61.7324 133.714L66.6463 135.298L69.1392 133.789L66.6964 131.293L61.7575 131.246L61.7324 133.714Z" fill="#305399"/>
<path d="M36.7328 70.4628C36.7767 69.0987 36.8519 67.9541 36.8645 67.5496C36.9617 63.8869 37.2878 60.2306 37.7457 56.593C38.1564 53.3349 38.6864 45.2413 39.2352 42.002C39.6961 39.3272 41.3017 32.651 42.4588 30.1674C45.3438 23.9993 44.4532 23.4285 57.1219 21.5972C62.6723 20.7945 63.9862 24.2533 68.5238 28.2326C68.9722 28.6246 68.9471 30.9608 69.0506 31.5817C69.2356 32.6698 69.43 33.7579 69.6558 34.8398C69.8314 35.6928 70.0258 36.5394 70.2453 37.383C70.2453 37.383 74.0554 54.7241 76.5766 58.4087C79.0978 62.0933 84.3032 67.2391 75.5951 70.3844C74.0612 70.9142 72.4886 71.3242 70.8913 71.6105C70.8913 71.6105 63.7699 70.8202 60.1072 70.8453C56.7277 70.8838 53.3569 71.1984 50.0287 71.7861C47.8116 72.1561 45.5476 72.6955 43.5626 73.7303C41.6811 74.7181 40.3045 76.1731 38.3854 77.1985C38.2116 77.3154 38.005 77.3736 37.7958 77.3647C36.6889 77.2142 36.6418 73.3383 36.7328 70.4628Z" fill="#7383C5"/>
<path d="M57.1336 23.3385C56.5064 23.6521 54.9887 23.765 53.4145 23.1504C53.2588 23.0905 53.1249 22.9846 53.0308 22.8468C52.9367 22.709 52.8868 22.5458 52.8877 22.379C52.8997 21.4227 52.9761 20.4682 53.1166 19.5222C51.9375 19.1083 50.5735 18.4843 50.3665 17.2519C50.3237 16.8588 50.347 16.4613 50.4355 16.076C50.7135 14.4704 50.9916 12.8649 51.2696 11.2593C51.3287 10.6976 51.4981 10.153 51.7682 9.65693C52.2982 8.8228 53.3361 8.45904 54.302 8.28971C56.7855 7.85697 59.4949 8.39633 61.4234 10.0238C61.9563 10.4347 62.3716 10.9788 62.6276 11.6011C62.9756 12.5764 62.7154 13.652 62.452 14.6523C62.2105 15.593 61.9659 16.5024 61.7245 17.4275C61.4454 18.4905 61.0408 19.6978 60.0154 20.0961C59.4729 20.3093 58.8301 20.2466 58.3378 20.5602C57.4691 21.1215 57.5883 22.4135 57.1336 23.3385Z" fill="#EFB9AC"/>
<path d="M71.4976 7.78873C71.7392 7.38863 72.0074 7.0052 72.3004 6.64102C72.9275 5.85393 73.724 5.17973 74.2352 4.30797C74.7463 3.43621 74.9282 2.254 74.3136 1.4481C73.8718 0.96129 73.2882 0.625623 72.6453 0.488536C70.5679 -0.119591 68.3657 -0.160735 66.267 0.369374C64.2821 0.874242 62.504 1.71151 60.5034 0.965181C58.6219 0.262756 57.2672 0.551252 55.3042 1.25054C53.1781 2.00941 50.3276 2.19129 48.4054 3.25747C47.612 3.72957 46.9448 4.38701 46.4612 5.17346C45.6083 6.52553 45.1516 8.08959 45.1427 9.68814C45.1338 11.2867 45.5732 12.8557 46.411 14.2172C46.8052 14.8135 47.25 15.3748 47.7406 15.8948C48.7441 16.9798 49.9357 18.322 51.3217 18.7171C51.3562 17.4847 50.2304 13.5931 51.1775 12.5834C52.6826 10.9779 56.0819 11.536 57.9477 11.9312C59.9797 12.3639 61.7954 13.8127 63.8117 14.1262C65.2636 14.3489 67.1168 13.637 68.3492 12.8719C69.8858 11.9531 70.5945 9.25316 71.4976 7.78873Z" fill="#3B455A"/>
<path d="M46.6052 23.9707L38.6998 30.8977L29.8818 49.4273L41.0203 62.6793L42.9363 55.2694L46.6052 23.9707Z" fill="#7383C5"/>
<path d="M100.776 30.9062L3.06348 38.2598L54.2119 65.0428L100.776 30.9062Z" fill="#FFCD4B"/>
<path d="M0 40.5087L4.73823 103.432L96.3325 96.5333C103.263 96.0128 108.427 89.5875 107.869 82.1807L104.141 32.666L54.5132 69.0416L0 40.5087Z" fill="#FFCD4B"/>
<path d="M83.2435 32.2225C83.1792 33.0743 83.1792 33.9296 83.2435 34.7814C83.4332 37.3578 84.2167 39.8553 85.5327 42.0784L100.776 30.9023L83.2435 32.2225Z" fill="#414141"/>
<path d="M101.286 50.3113C102.686 50.2064 104.067 49.9272 105.398 49.4803L104.143 32.666L87.5547 44.8424C89.2759 46.7396 91.4077 48.2185 93.7876 49.1663C96.1674 50.1141 98.7322 50.5057 101.286 50.3113Z" fill="#414141"/>
<path d="M115.932 43.0303C122.508 36.4541 122.508 25.792 115.932 19.2158C109.355 12.6396 98.6934 12.6396 92.1172 19.2158C85.541 25.792 85.541 36.4541 92.1172 43.0303C98.6934 49.6065 109.355 49.6065 115.932 43.0303Z" fill="#E23A58"/>
<path d="M107.527 40.3272L103.585 40.5623L102.81 27.5832L100.346 27.7306L100.11 23.7857L106.52 23.4062L107.527 40.3272Z" fill="white"/>
<path d="M144.247 68.9496C144.085 68.9511 143.923 68.9197 143.773 68.8572C143.622 68.7947 143.486 68.7024 143.373 68.5859L133.651 58.6296L127.628 66.3532C127.527 66.4861 127.397 66.5938 127.248 66.6678C127.099 66.7418 126.935 66.7801 126.768 66.7796C126.496 66.7687 126.232 66.6791 126.01 66.5216C125.787 66.3641 125.615 66.1455 125.514 65.8922L111.193 27.3811C111.105 27.1725 111.083 26.9418 111.132 26.7206C111.18 26.4995 111.295 26.2986 111.462 26.1456C111.559 26.0129 111.685 25.9045 111.831 25.8294C111.977 25.7542 112.139 25.7143 112.303 25.7129C112.46 25.7143 112.615 25.7451 112.761 25.8038L150.902 41.0784C151.123 41.1595 151.318 41.2987 151.466 41.4814C151.615 41.6641 151.711 41.8835 151.745 42.1164C151.771 42.3468 151.734 42.5799 151.639 42.7913C151.543 43.0026 151.393 43.1843 151.203 43.3174L143.47 49.056L153.163 58.9902C153.396 59.2253 153.527 59.5432 153.527 59.8746C153.527 60.2059 153.396 60.5238 153.163 60.7589L145.129 68.5984C144.888 68.8294 144.568 68.9586 144.235 68.959L144.247 68.9496ZM133.517 55.5032C133.857 55.4992 134.185 55.63 134.429 55.867L144.266 65.9518L150.519 59.8432L140.701 49.7803C140.578 49.6579 140.483 49.5107 140.422 49.3484C140.36 49.1861 140.335 49.0126 140.346 48.8396C140.365 48.646 140.425 48.4587 140.522 48.2903C140.62 48.122 140.752 47.9767 140.911 47.8643L148.01 42.5868L114.529 29.2062L127.072 62.9947L132.61 55.9015C132.721 55.7699 132.86 55.6655 133.017 55.5964C133.174 55.5273 133.345 55.4954 133.517 55.5032Z" fill="white"/>
<path d="M153.498 58.6555L148.794 53.8452L144.169 49.1038L147.399 46.7237L151.476 43.6945C151.737 43.513 151.943 43.2632 152.071 42.9723C152.2 42.6814 152.246 42.3608 152.204 42.0456C152.162 41.7304 152.034 41.4328 151.834 41.1854C151.635 40.938 151.37 40.7505 151.071 40.6433L138.104 35.4598L117.624 27.2565L114.837 26.1402L112.936 25.3813C112.737 25.2999 112.524 25.2573 112.309 25.2559C112.081 25.2559 111.856 25.3073 111.65 25.4061C111.444 25.5048 111.263 25.6485 111.121 25.8266C110.895 26.044 110.74 26.3238 110.676 26.6301C110.611 26.9363 110.639 27.255 110.757 27.545L111.274 28.9342L115.621 40.6371L123.303 61.3335L124.191 63.723L125.063 66.0655C125.197 66.409 125.43 66.7054 125.731 66.9178C126.033 67.1303 126.39 67.2493 126.759 67.2602C126.997 67.261 127.232 67.2064 127.445 67.1008C127.659 66.9952 127.845 66.8415 127.988 66.6519L131.052 62.7164L133.683 59.3517L137.321 63.077L141.711 67.5769L143.025 68.9222C143.182 69.0838 143.37 69.2118 143.578 69.2986C143.786 69.3853 144.01 69.4291 144.235 69.4271C144.69 69.4264 145.128 69.2487 145.455 68.9316L149.412 65.0714L153.489 61.0921C153.65 60.933 153.778 60.7436 153.866 60.5349C153.954 60.3262 153.999 60.1022 154 59.8757C154.001 59.6493 153.957 59.425 153.871 59.2156C153.785 59.0061 153.658 58.8158 153.498 58.6555ZM152.83 60.4116L144.796 68.2511C144.645 68.3981 144.443 68.4802 144.232 68.48C144.132 68.4812 144.034 68.4624 143.941 68.4247C143.849 68.387 143.766 68.3312 143.696 68.2605L142.382 66.9121L133.601 57.9155C131.482 60.6332 129.361 63.3509 127.239 66.0686C127.182 66.1447 127.108 66.2065 127.023 66.249C126.938 66.2914 126.845 66.3134 126.75 66.3132C126.573 66.303 126.403 66.2431 126.258 66.1405C126.114 66.0379 126.002 65.8967 125.934 65.7331L124.178 60.9948L116.495 40.2984L111.635 27.2189C111.576 27.0915 111.562 26.9482 111.594 26.8117C111.627 26.6753 111.704 26.5537 111.814 26.4663C111.867 26.384 111.94 26.3162 112.026 26.2691C112.112 26.222 112.208 26.1971 112.306 26.1966C112.403 26.198 112.499 26.2182 112.588 26.2562L117.292 28.1377L137.781 36.3316L150.748 41.5182C150.892 41.5629 151.02 41.6477 151.117 41.7628C151.215 41.8778 151.277 42.0182 151.297 42.1675C151.317 42.3167 151.294 42.4687 151.231 42.6053C151.167 42.742 151.066 42.8576 150.939 42.9388L142.786 49.0003L143.47 49.6996C146.606 52.9086 149.734 56.1155 152.855 59.3203C152.992 59.4705 153.066 59.6677 153.062 59.871C153.057 60.0742 152.974 60.2678 152.83 60.4116Z" fill="white"/>
<path d="M141.034 49.4509C140.951 49.3661 140.889 49.2639 140.851 49.1519C140.813 49.0398 140.801 48.9207 140.816 48.8033C140.83 48.6859 140.871 48.5733 140.935 48.4737C140.998 48.3741 141.084 48.2901 141.184 48.2279L148.952 42.4643L145.634 41.1378L125.145 32.9439L113.721 28.375L114.89 31.5265L122.576 52.2229L126.932 63.9541L132.993 56.1992C133.057 56.1234 133.138 56.0633 133.229 56.0236C133.319 55.9839 133.418 55.9657 133.517 55.9703C133.731 55.9671 133.938 56.0469 134.094 56.1929L135.408 57.5382L144.248 66.6038L151.169 59.8524L150.407 59.0716L141.034 49.4509ZM144.273 65.2742L142.319 63.2704L136.095 56.8734L135.897 56.6695L134.781 55.5281C134.616 55.364 134.421 55.2344 134.205 55.1472C133.99 55.0599 133.759 55.0167 133.527 55.0201C133.287 55.0178 133.049 55.0695 132.832 55.1716C132.615 55.2737 132.424 55.4234 132.272 55.6096L129.243 59.4886L127.252 62.0412L125.743 57.9803L123.479 51.8874L115.793 31.191L115.364 30.0276L124.818 33.7906L135.063 37.8891L145.286 42.019L146.986 42.6994L147.039 42.7214L144.562 44.5276L140.61 47.4596C140.399 47.6132 140.222 47.8101 140.092 48.0372C139.963 48.2642 139.883 48.5163 139.858 48.7767C139.839 49.019 139.873 49.2624 139.958 49.4903C140.042 49.7182 140.175 49.9251 140.347 50.0968L145.051 54.9072L149.754 59.7176L149.858 59.8242L144.273 65.2742Z" fill="white"/>
<path d="M112.382 27.0078L126.687 65.5157L133.546 56.7386L144.245 67.7045L148.262 63.7848L152.279 59.865L141.579 48.899L150.526 42.2605L112.382 27.0078Z" fill="#414141"/>
</svg>
