<svg width="420" height="103" viewBox="0 0 420 103" fill="none" xmlns="http://www.w3.org/2000/svg">
<path d="M0.661764 104.323C0.287543 105.062 0.583325 105.964 1.32241 106.338C2.0615 106.713 2.96401 106.417 3.33824 105.678L0.661764 104.323ZM197.5 56.5001L196.735 57.7906L197.5 56.5001ZM362.293 51.2612C362.713 50.5473 362.475 49.6278 361.761 49.2075C361.047 48.7871 360.128 49.025 359.707 49.7388L362.293 51.2612ZM4.9651 102.71C5.38548 101.996 5.14757 101.076 4.43373 100.656C3.71989 100.236 2.80042 100.473 2.38004 101.187L4.9651 102.71ZM8.1945 92.7835C7.68032 93.433 7.79004 94.3764 8.43958 94.8906C9.08912 95.4048 10.0325 95.2951 10.5467 94.6455L8.1945 92.7835ZM15.0101 89.4179C15.5696 88.807 15.5279 87.8582 14.9169 87.2987C14.306 86.7392 13.3571 86.7809 12.7977 87.3919L15.0101 89.4179ZM19.9682 80.2163C19.3592 80.7779 19.3208 81.7269 19.8824 82.3359C20.444 82.9449 21.393 82.9833 22.002 82.4216L19.9682 80.2163ZM27.2053 77.8659C27.842 77.3359 27.9285 76.3901 27.3985 75.7534C26.8685 75.1167 25.9227 75.0302 25.286 75.5602L27.2053 77.8659ZM33.2717 69.3518C32.6016 69.8389 32.4532 70.777 32.9403 71.4471C33.4274 72.1172 34.3655 72.2656 35.0356 71.7785L33.2717 69.3518ZM40.7403 67.8167C41.4306 67.3587 41.6189 66.4278 41.1609 65.7375C40.7029 65.0472 39.772 64.8589 39.0817 65.3169L40.7403 67.8167ZM47.6351 59.996C46.9193 60.413 46.6771 61.3314 47.0942 62.0472C47.5112 62.763 48.4296 63.0051 49.1454 62.5881L47.6351 59.996ZM55.2145 59.2121C55.9463 58.8239 56.2248 57.9159 55.8366 57.184C55.4484 56.4522 54.5404 56.1737 53.8085 56.562L55.2145 59.2121ZM62.8624 52.0815C62.1098 52.4278 61.7805 53.3187 62.1269 54.0712C62.4732 54.8238 63.364 55.1531 64.1166 54.8068L62.8624 52.0815ZM70.4798 52.0295C71.2455 51.7132 71.6098 50.8361 71.2935 50.0704C70.9773 49.3048 70.1002 48.9404 69.3345 49.2567L70.4798 52.0295ZM78.7596 45.6756C77.977 45.9474 77.563 46.8021 77.8348 47.5847C78.1066 48.3673 78.9613 48.7813 79.7439 48.5095L78.7596 45.6756ZM86.3473 46.3665C87.1404 46.1271 87.5893 45.2901 87.3499 44.497C87.1105 43.704 86.2735 43.2551 85.4804 43.4945L86.3473 46.3665ZM95.2274 40.8693C94.4213 41.0603 93.9227 41.8686 94.1137 42.6747C94.3047 43.4808 95.113 43.9794 95.9191 43.7884L95.2274 40.8693ZM102.703 42.3364C103.516 42.1809 104.05 41.3951 103.894 40.5814C103.739 39.7677 102.953 39.2342 102.139 39.3897L102.703 42.3364ZM112.121 37.813C111.299 37.9155 110.716 38.6649 110.818 39.487C110.921 40.3091 111.67 40.8924 112.492 40.79L112.121 37.813ZM119.388 40.094C120.214 40.0304 120.832 39.3092 120.768 38.4832C120.704 37.6572 119.983 37.0393 119.157 37.1029L119.388 40.094ZM129.254 36.6756C128.426 36.6815 127.759 37.3579 127.765 38.1863C127.771 39.0147 128.447 39.6814 129.276 39.6755L129.254 36.6756ZM136.204 39.7997C137.031 39.8355 137.731 39.1936 137.767 38.366C137.803 37.5383 137.161 36.8383 136.333 36.8025L136.204 39.7997ZM146.408 37.6119C145.585 37.5149 144.84 38.1031 144.743 38.9258C144.646 39.7486 145.234 40.4942 146.057 40.5913L146.408 37.6119ZM152.908 41.5845C153.725 41.7252 154.5 41.1774 154.641 40.361C154.782 39.5446 154.234 38.7688 153.418 38.6281L152.908 41.5845ZM163.311 40.7276C162.508 40.5244 161.692 41.0108 161.489 41.8139C161.285 42.617 161.772 43.4328 162.575 43.636L163.311 40.7276ZM169.234 45.515C170.025 45.7615 170.866 45.3203 171.113 44.5294C171.359 43.7386 170.918 42.8975 170.127 42.6509L169.234 45.515ZM179.66 46.0352C178.891 45.728 178.018 46.1027 177.711 46.872C177.404 47.6414 177.779 48.5141 178.548 48.8213L179.66 46.0352ZM184.902 51.5591C185.653 51.9073 186.545 51.5801 186.893 50.8284C187.241 50.0766 186.914 49.185 186.162 48.8369L184.902 51.5591ZM195.171 53.4304C194.448 53.0268 193.534 53.286 193.131 54.0094C192.727 54.7328 192.986 55.6465 193.71 56.0502L195.171 53.4304ZM199.652 59.4817C200.373 59.8904 201.288 59.6375 201.697 58.9169C202.106 58.1963 201.853 57.2809 201.132 56.8722L199.652 59.4817ZM209.51 61.3344C208.769 60.9641 207.868 61.2647 207.497 62.0057C207.127 62.7468 207.428 63.6477 208.169 64.018L209.51 61.3344ZM214.259 66.9274C215.013 67.2713 215.903 66.9391 216.246 66.1854C216.59 65.4317 216.258 64.542 215.504 64.1981L214.259 66.9274ZM224.236 67.9242C223.466 67.6178 222.594 67.9934 222.288 68.763C221.981 69.5327 222.357 70.4051 223.126 70.7115L224.236 67.9242ZM229.438 73.1006C230.218 73.3807 231.077 72.9758 231.357 72.1961C231.637 71.4165 231.232 70.5574 230.452 70.2773L229.438 73.1006ZM239.464 73.2714C238.672 73.0293 237.833 73.4753 237.591 74.2675C237.349 75.0598 237.795 75.8983 238.587 76.1404L239.464 73.2714ZM245.074 78.003C245.874 78.218 246.697 77.7437 246.912 76.9437C247.127 76.1436 246.653 75.3208 245.853 75.1058L245.074 78.003ZM255.075 77.3408C254.265 77.1659 253.467 77.6805 253.292 78.4902C253.117 79.3 253.631 80.0982 254.441 80.2732L255.075 77.3408ZM261.066 81.5809C261.882 81.7267 262.661 81.1837 262.806 80.3682C262.952 79.5526 262.409 78.7734 261.594 78.6277L261.066 81.5809ZM270.977 80.0474C270.155 79.9458 269.406 80.5299 269.304 81.3521C269.203 82.1743 269.787 82.9232 270.609 83.0248L270.977 80.0474ZM277.329 83.7206C278.154 83.7894 278.879 83.1758 278.948 82.3503C279.017 81.5247 278.403 80.7997 277.577 80.731L277.329 83.7206ZM287.043 81.232C286.215 81.214 285.529 81.8708 285.511 82.699C285.493 83.5273 286.15 84.2133 286.978 84.2313L287.043 81.232ZM293.745 84.2227C294.573 84.2021 295.228 83.514 295.207 82.6858C295.186 81.8577 294.498 81.203 293.67 81.2236L293.745 84.2227ZM303.108 80.6484C302.284 80.7297 301.681 81.464 301.763 82.2884C301.844 83.1129 302.578 83.7152 303.403 83.6339L303.108 80.6484ZM310.133 82.7771C310.951 82.6486 311.51 81.8809 311.382 81.0625C311.253 80.2441 310.486 79.6849 309.667 79.8134L310.133 82.7771ZM318.902 77.9329C318.099 78.1365 317.614 78.9525 317.817 79.7556C318.021 80.5586 318.837 81.0445 319.64 80.841L318.902 77.9329ZM326.173 78.9309C326.959 78.6688 327.383 77.8193 327.121 77.0334C326.859 76.2475 326.009 75.8229 325.224 76.085L326.173 78.9309ZM333.935 72.6019C333.186 72.9562 332.866 73.8505 333.221 74.5993C333.575 75.3481 334.469 75.6679 335.218 75.3136L333.935 72.6019ZM341.249 72.1049C341.961 71.6808 342.194 70.7601 341.77 70.0485C341.346 69.3368 340.425 69.1037 339.714 69.5278L341.249 72.1049ZM347.35 64.1664C346.711 64.6937 346.62 65.6392 347.147 66.2781C347.675 66.917 348.62 67.0075 349.259 66.4802L347.35 64.1664ZM354.295 61.8125C354.868 61.2148 354.849 60.2652 354.251 59.6917C353.653 59.1181 352.704 59.1377 352.13 59.7354L354.295 61.8125ZM357.966 52.5025C357.503 53.1897 357.685 54.1219 358.372 54.5845C359.06 55.0472 359.992 54.8651 360.454 54.1779L357.966 52.5025ZM3.33824 105.678C3.83269 104.701 4.37532 103.711 4.9651 102.71L2.38004 101.187C1.75997 102.24 1.18658 103.286 0.661764 104.323L3.33824 105.678ZM10.5467 94.6455C11.9178 92.9135 13.4076 91.1679 15.0101 89.4179L12.7977 87.3919C11.1497 89.1914 9.61292 90.9917 8.1945 92.7835L10.5467 94.6455ZM22.002 82.4216C23.6586 80.8939 25.3945 79.3732 27.2053 77.8659L25.286 75.5602C23.4373 77.099 21.6632 78.6531 19.9682 80.2163L22.002 82.4216ZM35.0356 71.7785C36.8804 70.4375 38.7832 69.1153 40.7403 67.8167L39.0817 65.3169C37.0892 66.6389 35.1514 67.9855 33.2717 69.3518L35.0356 71.7785ZM49.1454 62.5881C51.1255 61.4343 53.1495 60.3077 55.2145 59.2121L53.8085 56.562C51.7082 57.6762 49.6494 58.8223 47.6351 59.996L49.1454 62.5881ZM64.1166 54.8068C66.2046 53.8458 68.3265 52.9189 70.4798 52.0295L69.3345 49.2567C67.1442 50.1614 64.986 51.1042 62.8624 52.0815L64.1166 54.8068ZM79.7439 48.5095C81.9197 47.7538 84.1216 47.0384 86.3473 46.3665L85.4804 43.4945C83.2147 44.1784 80.9736 44.9066 78.7596 45.6756L79.7439 48.5095ZM95.9191 43.7884C98.1615 43.2571 100.423 42.7721 102.703 42.3364L102.139 39.3897C99.8163 39.8338 97.5116 40.328 95.2274 40.8693L95.9191 43.7884ZM112.492 40.79C114.778 40.5051 117.077 40.2722 119.388 40.094L119.157 37.1029C116.799 37.2847 114.452 37.5224 112.121 37.813L112.492 40.79ZM129.276 39.6755C131.577 39.6589 133.887 39.6994 136.204 39.7997L136.333 36.8025C133.966 36.7 131.605 36.6586 129.254 36.6756L129.276 39.6755ZM146.057 40.5913C148.338 40.8604 150.622 41.1906 152.908 41.5845L153.418 38.6281C151.078 38.225 148.741 37.8872 146.408 37.6119L146.057 40.5913ZM162.575 43.636C164.796 44.1979 167.017 44.8235 169.234 45.515L170.127 42.6509C167.857 41.9431 165.584 41.3028 163.311 40.7276L162.575 43.636ZM178.548 48.8213C180.671 49.669 182.789 50.5809 184.902 51.5591L186.162 48.8369C184.001 47.836 181.833 46.9028 179.66 46.0352L178.548 48.8213ZM193.71 56.0502C194.72 56.614 195.729 57.1941 196.735 57.7906L198.265 55.2097C197.236 54.6 196.205 54.007 195.171 53.4304L193.71 56.0502ZM196.735 57.7906C197.7 58.3624 198.673 58.9262 199.652 59.4817L201.132 56.8722C200.169 56.3259 199.213 55.7718 198.265 55.2097L196.735 57.7906ZM208.169 64.018C210.177 65.0214 212.208 65.9915 214.259 66.9274L215.504 64.1981C213.485 63.2767 211.486 62.3218 209.51 61.3344L208.169 64.018ZM223.126 70.7115C225.216 71.5432 227.321 72.3399 229.438 73.1006L230.452 70.2773C228.367 69.528 226.294 68.7433 224.236 67.9242L223.126 70.7115ZM238.587 76.1404C240.742 76.7991 242.906 77.4203 245.074 78.003L245.853 75.1058C243.717 74.532 241.587 73.9202 239.464 73.2714L238.587 76.1404ZM254.441 80.2732C256.65 80.7504 258.859 81.1866 261.066 81.5809L261.594 78.6277C259.423 78.2398 257.248 77.8105 255.075 77.3408L254.441 80.2732ZM270.609 83.0248C272.857 83.3027 275.098 83.535 277.329 83.7206L277.577 80.731C275.388 80.5487 273.187 80.3205 270.977 80.0474L270.609 83.0248ZM286.978 84.2313C289.252 84.2808 291.509 84.2783 293.745 84.2227L293.67 81.2236C291.482 81.2781 289.272 81.2805 287.043 81.232L286.978 84.2313ZM303.403 83.6339C305.677 83.4094 307.921 83.1243 310.133 82.7771L309.667 79.8134C307.515 80.1514 305.327 80.4294 303.108 80.6484L303.403 83.6339ZM319.64 80.841C321.864 80.2771 324.044 79.641 326.173 78.9309L325.224 76.085C323.167 76.7708 321.058 77.3864 318.902 77.9329L319.64 80.841ZM335.218 75.3136C337.296 74.3304 339.308 73.2616 341.249 72.1049L339.714 69.5278C337.858 70.6336 335.93 71.6578 333.935 72.6019L335.218 75.3136ZM349.259 66.4802C351.027 65.0212 352.708 63.466 354.295 61.8125L352.13 59.7354C350.626 61.303 349.03 62.7794 347.35 64.1664L349.259 66.4802ZM360.454 54.1779C361.093 53.2297 361.706 52.2575 362.293 51.2612L359.707 49.7388C359.151 50.6832 358.571 51.6043 357.966 52.5025L360.454 54.1779Z" fill="white" fill-opacity="0.3"/>
<path d="M363.793 44.6057L357.41 57.902L357.396 39.0899L419.999 0L363.793 44.6057Z" fill="#C9C9C9"/>
<path d="M357.412 57.9025L363.6 44.811L419.864 0.195312L357.412 57.9025Z" fill="#868686"/>
<path d="M419.862 0.194763L420 0L419.271 0.564313L419.862 0.194763Z" fill="#707F78"/>
<path d="M419.862 0.195312L419.27 0.564862L363.613 44.7286L363.551 44.766L381.489 60.8789L419.862 0.195312Z" fill="#F3F3F3"/>
<path d="M420 0L342 25.4091L357.306 39.1573L419.271 0.564313L420 0Z" fill="#F3F3F3"/>
</svg>