<svg width="24" height="24" viewBox="0 0 24 24" fill="none" xmlns="http://www.w3.org/2000/svg">
<path d="M19.8948 9.39208L18.6636 5.63008C18.485 5.08236 18.1415 4.60589 17.6818 4.26838C17.2221 3.93087 16.6697 3.74949 16.1031 3.75H7.8969C7.33025 3.74949 6.77785 3.93087 6.3182 4.26838C5.85854 4.60589 5.515 5.08236 5.3364 5.63008L4.1052 9.39208C3.7778 9.53161 3.4982 9.76661 3.30156 10.0675C3.10492 10.3684 3 10.7219 3 11.0833V15.6667C3 16.3432 3.3636 16.928 3.9 17.2461V19.3333C3.9 19.5764 3.99482 19.8096 4.1636 19.9815C4.33239 20.1534 4.56131 20.25 4.8 20.25H5.7C5.93869 20.25 6.16761 20.1534 6.3364 19.9815C6.50518 19.8096 6.6 19.5764 6.6 19.3333V17.5H17.4V19.3333C17.4 19.5764 17.4948 19.8096 17.6636 19.9815C17.8324 20.1534 18.0613 20.25 18.3 20.25H19.2C19.4387 20.25 19.6676 20.1534 19.8364 19.9815C20.0052 19.8096 20.1 19.5764 20.1 19.3333V17.2461C20.3731 17.0866 20.6 16.8566 20.758 16.5793C20.916 16.3021 20.9995 15.9873 21 15.6667V11.0833C21 10.7219 20.8951 10.3684 20.6984 10.0675C20.5018 9.76661 20.2222 9.53161 19.8948 9.39208ZM7.8969 5.58333H16.1022C16.4901 5.58333 16.8339 5.8345 16.9563 6.21033L17.9517 9.25H6.0483L7.0428 6.21033C7.10251 6.02773 7.21714 5.8689 7.37044 5.75636C7.52374 5.64382 7.70793 5.58329 7.8969 5.58333ZM6.15 14.75C5.97266 14.7499 5.79706 14.7143 5.63324 14.6451C5.46942 14.5759 5.32058 14.4746 5.19522 14.3468C5.06986 14.219 4.97044 14.0674 4.90262 13.9005C4.83481 13.7336 4.79994 13.5547 4.8 13.3741C4.80006 13.1935 4.83505 13.0146 4.90297 12.8478C4.97089 12.6809 5.07041 12.5293 5.19586 12.4016C5.3213 12.2739 5.4702 12.1727 5.63407 12.1036C5.79794 12.0345 5.97356 11.999 6.1509 11.9991C6.50906 11.9992 6.85251 12.1442 7.10568 12.4023C7.35885 12.6603 7.50102 13.0102 7.5009 13.375C7.50078 13.7398 7.35839 14.0896 7.10504 14.3475C6.8517 14.6053 6.50816 14.7501 6.15 14.75ZM17.85 14.75C17.6727 14.7499 17.4971 14.7143 17.3332 14.6451C17.1694 14.5759 17.0206 14.4746 16.8952 14.3468C16.7699 14.219 16.6704 14.0674 16.6026 13.9005C16.5348 13.7336 16.4999 13.5547 16.5 13.3741C16.5001 13.1935 16.535 13.0146 16.603 12.8478C16.6709 12.6809 16.7704 12.5293 16.8959 12.4016C17.0213 12.2739 17.1702 12.1727 17.3341 12.1036C17.4979 12.0345 17.6736 11.999 17.8509 11.9991C18.2091 11.9992 18.5525 12.1442 18.8057 12.4023C19.0589 12.6603 19.201 13.0102 19.2009 13.375C19.2008 13.7398 19.0584 14.0896 18.805 14.3475C18.5517 14.6053 18.2082 14.7501 17.85 14.75Z" fill="white" fill-opacity="0.8"/>
</svg>
