<svg width="18" height="20" viewBox="0 0 18 20" fill="none" xmlns="http://www.w3.org/2000/svg">
<path d="M10.4211 1.46353V8.05935H18C18.0004 6.22501 17.3435 4.452 16.1498 3.06545C14.9561 1.67891 13.3057 0.77177 11.5011 0.510375C10.9326 0.424591 10.4211 0.882105 10.4211 1.46353ZM16.4084 13.6734C17.4404 12.3417 18.0006 10.7012 18 9.01251H4.20632L3.56211 7.6495C3.48597 7.4868 3.36533 7.34929 3.21433 7.25307C3.06333 7.15686 2.88821 7.10591 2.70947 7.1062H0.947368C0.426316 7.1062 0 7.53512 0 8.05935C0 8.58359 0.426316 9.01251 0.947368 9.01251H2.10316C2.10316 9.01251 3.89368 12.8918 4.11158 13.2254C3.46059 13.5776 2.94497 14.1381 2.64638 14.8184C2.3478 15.4986 2.28332 16.2596 2.46316 16.9809C2.74737 18.1818 3.73263 19.1445 4.92632 19.4114C6.91579 19.8499 8.69684 18.4964 8.95263 16.6377H10.9232C10.9878 17.0923 11.145 17.5286 11.385 17.9192C11.6251 18.3098 11.9427 18.6463 12.3181 18.9076C12.6934 19.1689 13.1184 19.3494 13.5663 19.4377C14.0142 19.5261 14.4754 19.5204 14.9211 19.4209C15.517 19.2892 16.065 18.9942 16.5047 18.5686C16.9444 18.143 17.2586 17.6035 17.4126 17.0095C17.7442 15.6846 17.28 14.455 16.4084 13.6734ZM5.68421 17.5909C4.89789 17.5909 4.26316 16.9523 4.26316 16.1612C4.26316 15.37 4.89789 14.7314 5.68421 14.7314C6.47053 14.7314 7.10526 15.37 7.10526 16.1612C7.10526 16.9523 6.47053 17.5909 5.68421 17.5909ZM14.2105 17.5909C13.4242 17.5909 12.7895 16.9523 12.7895 16.1612C12.7895 15.37 13.4242 14.7314 14.2105 14.7314C14.9968 14.7314 15.6316 15.37 15.6316 16.1612C15.6316 16.9523 14.9968 17.5909 14.2105 17.5909Z" fill="white" fill-opacity="0.8"/>
</svg>
