<svg width="18" height="19" viewBox="0 0 18 19" fill="none" xmlns="http://www.w3.org/2000/svg">
<path d="M13.125 14.75L17.1682 18.3634C17.5013 18.6841 18 18.4042 18 17.8968V7.85315C18 7.34579 17.5013 7.06592 17.1682 7.38657L13.125 11" fill="white" fill-opacity="0.8"/>
<path d="M2.625 5.75C4.07475 5.75 5.25 4.57475 5.25 3.125C5.25 1.67525 4.07475 0.5 2.625 0.5C1.17525 0.5 0 1.67525 0 3.125C0 4.57475 1.17525 5.75 2.625 5.75Z" fill="white" fill-opacity="0.8"/>
<path d="M10.5 5.75C12.1569 5.75 13.5 4.57475 13.5 3.125C13.5 1.67525 12.1569 0.5 10.5 0.5C8.84315 0.5 7.5 1.67525 7.5 3.125C7.5 4.57475 8.84315 5.75 10.5 5.75Z" fill="white" fill-opacity="0.8"/>
<path d="M12.334 17.75H1.16601C0.856768 17.75 0.560188 17.628 0.341518 17.4109C0.122848 17.1938 0 16.8993 0 16.5923V8.40773C0 8.10068 0.122848 7.80621 0.341518 7.58909C0.560188 7.37198 0.856768 7.25 1.16601 7.25H12.334C12.6432 7.25 12.9398 7.37198 13.1585 7.58909C13.3772 7.80621 13.5 8.10068 13.5 8.40773V16.5919C13.5001 16.744 13.4699 16.8945 13.4114 17.035C13.3528 17.1756 13.2669 17.3032 13.1586 17.4108C13.0503 17.5183 12.9218 17.6036 12.7803 17.6618C12.6388 17.72 12.4871 17.75 12.334 17.75Z" fill="white" fill-opacity="0.8"/>
</svg>
