<svg width="17" height="16" viewBox="0 0 17 16" fill="none" xmlns="http://www.w3.org/2000/svg">
<path fill-rule="evenodd" clip-rule="evenodd" d="M8.5 16C12.9183 16 16.5 12.4183 16.5 8C16.5 3.58172 12.9183 0 8.5 0C4.08172 0 0.5 3.58172 0.5 8C0.5 12.4183 4.08172 16 8.5 16ZM9.25 2.4C9.25 1.98579 8.91421 1.65 8.5 1.65C8.08579 1.65 7.75 1.98579 7.75 2.4V8.8C7.75 9.21421 8.08579 9.55 8.5 9.55H12.5C12.9142 9.55 13.25 9.21421 13.25 8.8C13.25 8.38579 12.9142 8.05 12.5 8.05H9.25V2.4Z" fill="white" fill-opacity="0.8"/>
</svg>
