<svg width="15" height="21" viewBox="0 0 15 21" fill="none" xmlns="http://www.w3.org/2000/svg">
<path d="M13.9795 7.76062C13.3988 6.21887 12.5521 4.79096 11.4778 3.54187C9.61875 1.38984 7.17422 0 5.25 0C5.13558 8.53275e-05 5.0227 0.0263472 4.92 0.0767756C4.8173 0.127204 4.72749 0.200462 4.65746 0.290942C4.58743 0.381422 4.53903 0.486725 4.51596 0.598792C4.49289 0.710858 4.49577 0.826717 4.52437 0.9375C5.17453 3.42188 3.82688 5.48766 2.40047 7.67438C1.21875 9.48563 0 11.3564 0 13.5C0 17.6353 3.36469 21 7.5 21C11.6353 21 15 17.6353 15 13.5C15 11.4703 14.6569 9.53953 13.9795 7.76062ZM9.01547 18.1261C8.53125 18.6417 7.92422 18.75 7.5 18.75C7.07578 18.75 6.46875 18.6417 5.98453 18.1261C5.50031 17.6105 5.25 16.7925 5.25 15.75C5.25 14.5716 5.66344 13.6744 6.06281 12.8072C6.29484 12.3038 6.53156 11.7914 6.67219 11.243C6.68712 11.1833 6.71649 11.1282 6.75772 11.0826C6.79895 11.037 6.85077 11.0022 6.90861 10.9813C6.96645 10.9604 7.02854 10.9541 7.08941 10.9628C7.15028 10.9716 7.20806 10.9952 7.25766 11.0316C7.68638 11.3633 8.06759 11.7522 8.39062 12.1875C9.24234 13.3125 9.75 14.6447 9.75 15.75C9.75 16.7925 9.49594 17.6142 9.01547 18.1261Z" fill="#FFCD4B"/>
</svg>
