<svg width="24" height="24" viewBox="0 0 24 24" fill="none" xmlns="http://www.w3.org/2000/svg">
<path fill-rule="evenodd" clip-rule="evenodd" d="M11.1146 3.02492C10.7026 3.16086 10.3239 3.39192 10.0114 3.70443C9.48597 4.22983 9.19081 4.94242 9.19081 5.68545C9.19081 6.42847 9.48597 7.14107 10.0114 7.66647C10.5368 8.19187 11.2494 8.48703 11.9924 8.48703C12.5447 8.48703 12.9924 8.03932 12.9924 7.48703C12.9924 6.93475 12.5447 6.48703 11.9924 6.48703C11.7798 6.48703 11.5759 6.40258 11.4256 6.25225C11.2753 6.10193 11.1908 5.89804 11.1908 5.68545C11.1908 5.47285 11.2753 5.26897 11.4256 5.11864C11.5759 4.96831 11.7798 4.88386 11.9924 4.88386C12.5447 4.88386 12.9924 4.43615 12.9924 3.88386C12.9924 3.49622 12.7718 3.1601 12.4494 2.99414C17.2118 3.23227 21 7.16908 21 11.9907C21 16.9656 16.967 20.9986 11.9921 20.9986C7.01712 20.9986 2.98413 16.9656 2.98413 11.9907C2.98413 7.31176 6.55143 3.46604 11.1146 3.02492ZM8.29022 10.1895C8.29022 9.63723 8.73793 9.18951 9.29022 9.18951H9.29772C9.85 9.18951 10.2977 9.63723 10.2977 10.1895C10.2977 10.7418 9.85 11.1895 9.29772 11.1895H9.29022C8.73793 11.1895 8.29022 10.7418 8.29022 10.1895ZM13.695 10.1895C13.695 9.63723 14.1427 9.18951 14.695 9.18951H14.7025C15.2548 9.18951 15.7025 9.63723 15.7025 10.1895C15.7025 10.7418 15.2548 11.1895 14.7025 11.1895H14.695C14.1427 11.1895 13.695 10.7418 13.695 10.1895ZM10.4549 13.9939C10.0684 13.5994 9.43528 13.5929 9.04079 13.9794C8.6463 14.366 8.63984 14.9991 9.02635 15.3936C9.41301 15.7882 9.87453 16.1017 10.3839 16.3158C10.8932 16.5298 11.4401 16.64 11.9926 16.64C12.5451 16.64 13.092 16.5298 13.6014 16.3158C14.1107 16.1017 14.5722 15.7882 14.9589 15.3936C15.3454 14.9991 15.3389 14.366 14.9445 13.9794C14.55 13.5929 13.9168 13.5994 13.5303 13.9939C13.3299 14.1985 13.0906 14.361 12.8266 14.4719C12.5625 14.5829 12.279 14.64 11.9926 14.64C11.7062 14.64 11.4227 14.5829 11.1587 14.4719C10.8946 14.361 10.6554 14.1985 10.4549 13.9939Z" fill="white" fill-opacity="0.8"/>
</svg>
