<svg width="18" height="17" viewBox="0 0 18 17" fill="none" xmlns="http://www.w3.org/2000/svg">
<path d="M16.8948 5.89208L15.6636 2.13008C15.485 1.58236 15.1415 1.10589 14.6818 0.768382C14.2221 0.430873 13.6697 0.249488 13.1031 0.250001H4.8969C4.33025 0.249488 3.77785 0.430873 3.3182 0.768382C2.85854 1.10589 2.515 1.58236 2.3364 2.13008L1.1052 5.89208C0.7778 6.03161 0.498204 6.26661 0.30156 6.56753C0.104916 6.86844 -4.3281e-07 7.22186 0 7.58333V12.1667C0 12.8432 0.3636 13.428 0.9 13.7461V15.8333C0.9 16.0764 0.994821 16.3096 1.1636 16.4815C1.33239 16.6534 1.56131 16.75 1.8 16.75H2.7C2.93869 16.75 3.16761 16.6534 3.3364 16.4815C3.50518 16.3096 3.6 16.0764 3.6 15.8333V14H14.4V15.8333C14.4 16.0764 14.4948 16.3096 14.6636 16.4815C14.8324 16.6534 15.0613 16.75 15.3 16.75H16.2C16.4387 16.75 16.6676 16.6534 16.8364 16.4815C17.0052 16.3096 17.1 16.0764 17.1 15.8333V13.7461C17.3731 13.5866 17.6 13.3566 17.758 13.0793C17.916 12.8021 17.9995 12.4873 18 12.1667V7.58333C18 7.22186 17.8951 6.86844 17.6984 6.56753C17.5018 6.26661 17.2222 6.03161 16.8948 5.89208ZM4.8969 2.08333H13.1022C13.4901 2.08333 13.8339 2.3345 13.9563 2.71033L14.9517 5.75H3.0483L4.0428 2.71033C4.10251 2.52773 4.21714 2.3689 4.37044 2.25636C4.52374 2.14382 4.70793 2.08329 4.8969 2.08333ZM3.15 11.25C2.97266 11.2499 2.79706 11.2143 2.63324 11.1451C2.46942 11.0759 2.32058 10.9746 2.19522 10.8468C2.06986 10.719 1.97044 10.5674 1.90262 10.4005C1.83481 10.2336 1.79994 10.0547 1.8 9.87408C1.80006 9.69345 1.83505 9.51461 1.90297 9.34775C1.97089 9.1809 2.07041 9.0293 2.19586 8.90162C2.3213 8.77394 2.4702 8.67268 2.63407 8.60361C2.79794 8.53454 2.97356 8.49902 3.1509 8.49908C3.50906 8.4992 3.85251 8.64424 4.10568 8.90227C4.35885 9.1603 4.50102 9.51021 4.5009 9.875C4.50078 10.2398 4.35839 10.5896 4.10504 10.8475C3.8517 11.1053 3.50816 11.2501 3.15 11.25ZM14.85 11.25C14.6727 11.2499 14.4971 11.2143 14.3332 11.1451C14.1694 11.0759 14.0206 10.9746 13.8952 10.8468C13.7699 10.719 13.6704 10.5674 13.6026 10.4005C13.5348 10.2336 13.4999 10.0547 13.5 9.87408C13.5001 9.69345 13.535 9.51461 13.603 9.34775C13.6709 9.1809 13.7704 9.0293 13.8959 8.90162C14.0213 8.77394 14.1702 8.67268 14.3341 8.60361C14.4979 8.53454 14.6736 8.49902 14.8509 8.49908C15.2091 8.4992 15.5525 8.64424 15.8057 8.90227C16.0589 9.1603 16.201 9.51021 16.2009 9.875C16.2008 10.2398 16.0584 10.5896 15.805 10.8475C15.5517 11.1053 15.2082 11.2501 14.85 11.25Z" fill="white" fill-opacity="0.8"/>
</svg>
