<svg width="18" height="18" viewBox="0 0 18 18" fill="none" xmlns="http://www.w3.org/2000/svg">
<path d="M13.7574 11.0316C13.4702 9.95913 12.8492 9.01335 11.9899 8.33935C11.1305 7.66535 10.0801 7.30035 8.99992 7.30035C7.91973 7.30035 6.86938 7.66535 6.00999 8.33935C5.1506 9.01335 4.52965 9.95913 4.24241 11.0316L3.55788 13.5873C3.43497 14.0462 3.41664 14.5281 3.5043 14.9954C3.59196 15.4628 3.78325 15.903 4.06325 16.2817C4.34326 16.6604 4.70441 16.9674 5.11855 17.1787C5.53269 17.39 5.98862 17.5 6.4508 17.5H11.549C12.0112 17.5 12.4672 17.39 12.8813 17.1787C13.2954 16.9674 13.6566 16.6604 13.9366 16.2817C14.2166 15.903 14.4079 15.4628 14.4955 14.9954C14.5832 14.5281 14.5649 14.0462 14.442 13.5873L13.7574 11.0316Z" fill="white" fill-opacity="0.8"/>
<path d="M4.87741 8.16237C4.98184 7.49013 4.84335 6.77047 4.48728 6.13547C4.13121 5.50047 3.59523 5.0171 2.97789 4.77413C2.31677 4.51408 1.64245 4.55549 1.07849 4.89069C-0.0426464 5.55738 -0.337682 7.20048 0.420932 8.55347C0.776887 9.18848 1.3129 9.67196 1.93024 9.91481C2.20371 10.0246 2.49439 10.0818 2.78789 10.0837C3.15354 10.085 3.513 9.98655 3.82965 9.79821C4.39327 9.46298 4.7654 8.88203 4.87741 8.16237Z" fill="white" fill-opacity="0.8"/>
<path d="M5.00721 5.60127C5.43343 5.9522 5.92015 6.13494 6.41236 6.1349C6.55979 6.13485 6.70679 6.11852 6.85084 6.08618C8.11587 5.80295 8.88289 4.33049 8.56066 2.80383C8.40948 2.08731 8.04193 1.45868 7.52576 1.03366C6.97302 0.57854 6.31827 0.406266 5.68214 0.548752C4.41714 0.831946 3.65013 2.3044 3.97232 3.83106C4.12353 4.54762 4.49108 5.17625 5.00721 5.60127Z" fill="white" fill-opacity="0.8"/>
<path d="M16.9215 4.89069C16.3578 4.55549 15.6831 4.51408 15.0221 4.77413C14.4047 5.01703 13.8687 5.50047 13.5128 6.13547C13.1568 6.77048 13.0183 7.49028 13.1226 8.16238C13.2345 8.88203 13.6066 9.46299 14.1704 9.79822C14.487 9.98657 14.8465 10.0851 15.2122 10.0837C15.5057 10.0818 15.7963 10.0246 16.0698 9.91482C16.6872 9.67196 17.2232 9.18848 17.5791 8.55348C18.3377 7.20048 18.0426 5.55738 16.9215 4.89069Z" fill="white" fill-opacity="0.8"/>
<path d="M11.1489 6.08612C11.2929 6.11845 11.4399 6.13479 11.5873 6.13484C12.0795 6.13484 12.5664 5.95213 12.9925 5.60121C13.5086 5.17623 13.8762 4.54756 14.0274 3.83103C14.3496 2.30437 13.5825 0.831919 12.3176 0.548725C11.6815 0.406317 11.0267 0.578474 10.4739 1.03363C9.95776 1.45862 9.59021 2.08728 9.43904 2.80377C9.11681 4.33043 9.88382 5.80288 11.1489 6.08612Z" fill="white" fill-opacity="0.8"/>
</svg>
