<svg width="19" height="17" viewBox="0 0 19 17" fill="none" xmlns="http://www.w3.org/2000/svg">
<path d="M18.525 14.5408H18.05C17.2769 14.5408 16.6903 14.2831 16.3848 13.9929C16.1206 13.7415 15.8012 13.5612 15.4417 13.5612H14.9577C14.5982 13.5612 14.2788 13.7415 14.0146 13.9929C13.7097 14.2831 13.1231 14.5408 12.35 14.5408C11.5769 14.5408 10.9903 14.2831 10.6848 13.9929C10.4206 13.7415 10.1012 13.5612 9.74166 13.5612H9.25775C8.89823 13.5612 8.5788 13.7415 8.31458 13.9929C8.00969 14.2831 7.42306 14.5408 6.65 14.5408C5.87694 14.5408 5.29031 14.2831 4.98483 13.9929C4.72061 13.7415 4.40117 13.5612 4.04166 13.5612H3.55775C3.19823 13.5612 2.8788 13.7415 2.61458 13.9929C2.30969 14.2831 1.72306 14.5408 0.95 14.5408H0.475C0.212562 14.5408 0 14.76 0 15.0306V16.0102C0 16.2808 0.212562 16.5 0.475 16.5H0.95C2.09653 16.5 3.10888 16.1268 3.8 15.5253C4.49113 16.1271 5.50347 16.5 6.65 16.5C7.79653 16.5 8.80888 16.1268 9.5 15.5253C10.1911 16.1271 11.2035 16.5 12.35 16.5C13.4965 16.5 14.5089 16.1268 15.2 15.5253C15.8911 16.1271 16.9035 16.5 18.05 16.5H18.525C18.7874 16.5 19 16.2808 19 16.0102V15.0306C19 14.76 18.7874 14.5408 18.525 14.5408ZM6.65 12.0374V8.33674H12.35V12.0374C12.9176 12.0374 13.2662 11.8488 13.371 11.749C13.6432 11.4901 13.941 11.3101 14.25 11.1959V3.43878C14.25 2.89878 14.6763 2.45918 15.2 2.45918C15.7237 2.45918 16.15 2.89878 16.15 3.43878V3.92857C16.15 4.19918 16.3626 4.41837 16.625 4.41837H17.575C17.8374 4.41837 18.05 4.19918 18.05 3.92857V3.43878C18.05 1.81816 16.7717 0.5 15.2 0.5C13.6283 0.5 12.35 1.81816 12.35 3.43878V6.37755H6.65V3.43878C6.65 2.89878 7.07631 2.45918 7.6 2.45918C8.12369 2.45918 8.55 2.89878 8.55 3.43878V3.92857C8.55 4.19918 8.76256 4.41837 9.025 4.41837H9.975C10.2374 4.41837 10.45 4.19918 10.45 3.92857V3.43878C10.45 1.81816 9.17166 0.5 7.6 0.5C6.02834 0.5 4.75 1.81816 4.75 3.43878V11.1956C5.05905 11.3098 5.35681 11.4901 5.62905 11.7487C5.73384 11.8488 6.08238 12.0374 6.65 12.0374Z" fill="white" fill-opacity="0.8"/>
</svg>
