<svg width="15" height="18" viewBox="0 0 15 18" fill="none" xmlns="http://www.w3.org/2000/svg">
<path d="M14.5106 9.3813C14.8256 8.9195 15 8.35369 15 7.76499C15 6.83099 14.5294 5.94691 13.7719 5.4539C13.5769 5.327 13.3548 5.26021 13.1288 5.26044H8.6325L8.745 2.70389C8.77125 2.08607 8.57438 1.49946 8.19188 1.05222C8.00416 0.831779 7.77769 0.656388 7.52647 0.536885C7.27524 0.417383 7.00459 0.356309 6.73125 0.357437C5.75625 0.357437 4.89375 1.0855 4.635 2.12768L3.02437 8.59707H3.01875V17.5003H11.8744C12.0469 17.5003 12.2156 17.4628 12.3713 17.388C13.2638 16.9657 13.8394 15.9984 13.8394 14.925C13.8394 14.6629 13.8056 14.405 13.7381 14.1553C14.0531 13.6935 14.2275 13.1277 14.2275 12.539C14.2275 12.2769 14.1938 12.019 14.1263 11.7694C14.4413 11.3076 14.6156 10.7417 14.6156 10.1531C14.6119 9.89095 14.5781 9.63092 14.5106 9.3813ZM0 9.26273V16.8346C0 17.2028 0.268125 17.5003 0.6 17.5003H1.81875V8.59707H0.6C0.268125 8.59707 0 8.89454 0 9.26273Z" fill="white"/>
</svg>
