<svg width="18" height="19" viewBox="0 0 18 19" fill="none" xmlns="http://www.w3.org/2000/svg">
<path fill-rule="evenodd" clip-rule="evenodd" d="M18 9.75C18 14.7207 13.9707 18.75 9 18.75C4.0293 18.75 0 14.7207 0 9.75C0 4.7793 4.0293 0.75 9 0.75C13.9707 0.75 18 4.7793 18 9.75ZM9 9.75C8.04522 9.75 7.12955 9.37072 6.45442 8.69558C5.77928 8.02045 5.4 7.10478 5.4 6.15C5.4 5.19522 5.77928 4.27955 6.45442 3.60442C7.12955 2.92928 8.04522 2.55 9 2.55C7.09044 2.55 5.25909 3.30857 3.90883 4.65883C2.55857 6.00909 1.8 7.84044 1.8 9.75C1.8 11.6596 2.55857 13.4909 3.90883 14.8412C5.25909 16.1914 7.09044 16.95 9 16.95C9.95478 16.95 10.8705 16.5707 11.5456 15.8956C12.2207 15.2205 12.6 14.3048 12.6 13.35C12.6 12.3952 12.2207 11.4795 11.5456 10.8044C10.8705 10.1293 9.95478 9.75 9 9.75ZM10.8 6.15C10.8 6.62739 10.6104 7.08523 10.2728 7.42279C9.93523 7.76036 9.47739 7.95 9 7.95C8.52261 7.95 8.06477 7.76036 7.72721 7.42279C7.38964 7.08523 7.2 6.62739 7.2 6.15C7.2 5.67261 7.38964 5.21477 7.72721 4.87721C8.06477 4.53964 8.52261 4.35 9 4.35C9.47739 4.35 9.93523 4.53964 10.2728 4.87721C10.6104 5.21477 10.8 5.67261 10.8 6.15Z" fill="white" fill-opacity="0.8"/>
</svg>
