<svg width="24" height="24" viewBox="0 0 24 24" fill="none" xmlns="http://www.w3.org/2000/svg">
<path d="M10.6347 3.00066C11.1678 1.82896 12.8322 1.82896 13.3653 3.00066L15.0055 6.60536C15.2238 7.08522 15.678 7.41523 16.2019 7.4746L20.137 7.92056C21.4161 8.06552 21.9304 9.64843 20.9808 10.5175L18.0593 13.1913C17.6704 13.5473 17.4969 14.0812 17.6024 14.5978L18.3942 18.4781C18.6516 19.7394 17.3051 20.7177 16.1851 20.0831L12.7394 18.1309C12.2807 17.871 11.7193 17.871 11.2606 18.1309L7.81488 20.0831C6.69486 20.7177 5.34836 19.7394 5.60576 18.4781L6.39764 14.5978C6.50305 14.0812 6.32955 13.5473 5.94065 13.1913L3.01921 10.5175C2.06961 9.64843 2.58392 8.06552 3.86302 7.92056L7.79813 7.4746C8.32197 7.41523 8.77619 7.08522 8.99453 6.60536L10.6347 3.00066Z" fill="white" fill-opacity="0.8"/>
</svg>
