<svg width="18" height="21" viewBox="0 0 18 21" fill="none" xmlns="http://www.w3.org/2000/svg">
<path d="M1.29412 5.55882H10.0294V0.794118C10.0294 0.794118 10.0294 0 10.8235 0C11.6176 0 11.6176 0.794118 11.6176 0.794118V5.55882C17.9706 5.55882 17.9706 11.1176 17.9706 11.1176V12.7059C17.9706 13.5 17.1765 13.5 17.1765 13.5H14.7941C14.7941 13.5 14 13.5 14 12.7059V11.1176C14 9.52941 12.4118 9.52941 12.4118 9.52941H1.29412C0.5 9.52941 0.5 8.73529 0.5 8.73529V6.35294C0.5 6.35294 0.5 5.55882 1.29412 5.55882Z" fill="white" fill-opacity="0.8"/>
<path d="M12.8088 0.794118H15.1912C15.5071 0.794118 15.8101 0.919616 16.0335 1.14301C16.2569 1.36639 16.3824 1.66937 16.3824 1.98529C16.3824 2.30121 16.2569 2.60419 16.0335 2.82758C15.8101 3.05097 15.5071 3.17647 15.1912 3.17647H12.8088C12.4929 3.17647 12.1899 3.05097 11.9665 2.82758C11.7432 2.60419 11.6177 2.30121 11.6177 1.98529C11.6177 1.66937 11.7432 1.36639 11.9665 1.14301C12.1899 0.919616 12.4929 0.794118 12.8088 0.794118ZM8.83824 3.17647H6.45589C6.13997 3.17647 5.83699 3.05097 5.6136 2.82758C5.39021 2.60419 5.26471 2.30121 5.26471 1.98529C5.26471 1.66937 5.39021 1.36639 5.6136 1.14301C5.83699 0.919616 6.13997 0.794118 6.45589 0.794118H8.83824C9.15416 0.794118 9.45714 0.919616 9.68053 1.14301C9.90392 1.36639 10.0294 1.66937 10.0294 1.98529C10.0294 2.30121 9.90392 2.60419 9.68053 2.82758C9.45714 3.05097 9.15416 3.17647 8.83824 3.17647Z" fill="white" fill-opacity="0.8"/>
<path d="M15.8529 15.3529L17.3162 18.2795C17.8601 19.3672 17.0691 20.6471 15.8529 20.6471C14.6368 20.6471 13.8458 19.3672 14.3897 18.2795L15.8529 15.3529Z" fill="white" fill-opacity="0.8"/>
</svg>
