<svg width="21" height="16" viewBox="0 0 21 16" fill="none" xmlns="http://www.w3.org/2000/svg">
<path d="M14.7241 10.1963C13.5572 9.15894 12.0501 8.58594 10.4887 8.58594C8.92738 8.58594 7.4203 9.15894 6.25334 10.1963C6.15474 10.2816 6.07406 10.3857 6.01601 10.5024C5.95796 10.6192 5.92369 10.7463 5.91518 10.8764C5.90668 11.0066 5.92411 11.1371 5.96647 11.2604C6.00882 11.3837 6.07526 11.4974 6.16192 11.5948C6.24859 11.6923 6.35374 11.7715 6.47129 11.828C6.58883 11.8844 6.71642 11.917 6.84665 11.9237C6.97687 11.9304 7.10713 11.9112 7.22987 11.8672C7.35261 11.8232 7.46538 11.7552 7.56163 11.6672C8.36816 10.9504 9.4097 10.5544 10.4887 10.5544C11.5678 10.5544 12.6093 10.9504 13.4158 11.6672C13.611 11.8407 13.8671 11.9295 14.1278 11.9142C14.3885 11.8989 14.6324 11.7806 14.8059 11.5854C14.9794 11.3902 15.0683 11.1341 15.0529 10.8734C15.0376 10.6127 14.9193 10.3688 14.7241 10.1953V10.1963Z" fill="white" fill-opacity="0.8"/>
<path d="M10.4881 4.54493C7.84519 4.54129 5.30038 5.5458 3.3725 7.35368C3.27489 7.44112 3.19573 7.54716 3.13964 7.6656C3.08355 7.78403 3.05168 7.91247 3.04588 8.04339C3.04009 8.1743 3.0605 8.30506 3.1059 8.42798C3.15131 8.55091 3.2208 8.66353 3.3103 8.75925C3.39981 8.85496 3.50752 8.93184 3.62713 8.98538C3.74674 9.03892 3.87583 9.06804 4.00684 9.07102C4.13785 9.07401 4.26814 9.05081 4.39007 9.00279C4.51199 8.95476 4.6231 8.88287 4.71688 8.79134C6.28226 7.32784 8.34518 6.5137 10.4881 6.5137C12.6311 6.5137 14.694 7.32784 16.2594 8.79134C16.3532 8.88287 16.4643 8.95476 16.5862 9.00279C16.7081 9.05081 16.8384 9.07401 16.9694 9.07102C17.1004 9.06804 17.2295 9.03892 17.3491 8.98538C17.4687 8.93184 17.5764 8.85496 17.666 8.75925C17.7555 8.66353 17.825 8.55091 17.8704 8.42798C17.9158 8.30506 17.9362 8.1743 17.9304 8.04339C17.9246 7.91247 17.8927 7.78403 17.8366 7.6656C17.7805 7.54716 17.7014 7.44112 17.6038 7.35368C15.6759 5.5458 13.1311 4.54129 10.4881 4.54493Z" fill="white" fill-opacity="0.8"/>
<path d="M20.1313 4.17663C17.4773 1.80868 14.0449 0.5 10.4881 0.5C6.93138 0.5 3.49896 1.80868 0.845022 4.17663C0.745279 4.26183 0.663571 4.36611 0.6047 4.48334C0.545829 4.60056 0.510981 4.72837 0.502205 4.85926C0.493429 4.99014 0.510902 5.12146 0.553596 5.24549C0.596291 5.36953 0.663346 5.48378 0.750821 5.58154C0.838296 5.67929 0.944428 5.75857 1.06298 5.81473C1.18153 5.87088 1.31011 5.90278 1.44116 5.90854C1.57221 5.9143 1.70309 5.8938 1.82611 5.84826C1.94913 5.80272 2.06181 5.73305 2.15752 5.64335C4.45047 3.59837 7.41552 2.46826 10.4879 2.46826C13.5603 2.46826 16.5254 3.59837 18.8183 5.64335C19.0129 5.8174 19.2687 5.90701 19.5294 5.89246C19.7901 5.87791 20.0343 5.7604 20.2084 5.56577C20.3824 5.37115 20.472 5.11536 20.4575 4.85467C20.4429 4.59398 20.3254 4.34974 20.1308 4.1757L20.1313 4.17663Z" fill="white" fill-opacity="0.8"/>
<path d="M10.4883 15.875C11.3167 15.875 11.9883 15.2034 11.9883 14.375C11.9883 13.5466 11.3167 12.875 10.4883 12.875C9.65985 12.875 8.98828 13.5466 8.98828 14.375C8.98828 15.2034 9.65985 15.875 10.4883 15.875Z" fill="white" fill-opacity="0.8"/>
</svg>
